# xmcd CD database file
#
# Track frame offsets:
#	150
#	20993
#	36958
#	58324
#	75773
#	94103
#	116456
#	130155
#	149173
#	162371
#	173722
#	192697
#	209459
#	220157
#	235704
#	257533
#	269205
#	293944
#
# Disc length: 4080 seconds
#
# Revision: 0
# Processed by: cddbd v1.5.2PL0 Copyright (c) Steve Scherf et al.
# Submitted via: CDex 1.70beta2
#
DISCID=1a0fee12
DTITLE=Various Artist - Ladies - The 2nd Smooth Jazz Avenue
DYEAR=2007
DGENRE=Jazz
TTITLE0=Arlena Bailey - Ivitation
TTITLE1=Frederika Stahl - Where Are You Going
TTITLE2=Sarah Vaughan - Nothing Will Be As It Was
TTITLE3=Nena Anderson - Gee Baby Ain't I Good For You
TTITLE4=Basia - Time And Tide
TTITLE5=Nancy Wilson - Hello Like Before
TTITLE6=Hansa - Draumur Fru Rosu
TTITLE7=Rosario - El Nino De Tus Ojos
TTITLE8=Dione Varvick - I'lll Never Fall In Love Again 
TTITLE9=Aretha Franklin - Love For Sale
TTITLE10=Ella Fitzgerald - Miss Otis Regrets
TTITLE11=Doris Day - Sentimental Journey
TTITLE12=Nina Simone - The Look Of Love
TTITLE13=Cesaria Evora and Dorota Miśkiewicz - Um Pincelada
TTITLE14=Anna Szafrańska - Zielono Mi
TTITLE15=Emme St. James - Make Love To Me
TTITLE16=BadaBing BadaBom - Time To Unwing
TTITLE17=PIN. Set - Java Jave
EXTD=YEAR: 2007
EXTT0=
EXTT1=
EXTT2=
EXTT3=
EXTT4=
EXTT5=
EXTT6=
EXTT7=
EXTT8=
EXTT9=
EXTT10=
EXTT11=
EXTT12=
EXTT13=
EXTT14=
EXTT15=
EXTT16=
EXTT17=
PLAYORDER=
